{"title":"Pusha T Ft. Rick Ross - Hold On [Explicit] 1080p [Sbyky]","uid":11115852,"size":74212527,"categoryP":"video","categoryS":"music_videos","magnet":"?xt=urn:btih:b7bd3c2f6856bda33753cc822aabd0c91765b509&amp;dn=Pusha+T+Ft.+Rick+Ross+-+Hold+On+%5BExplicit%5D+1080p+%5BSbyky%5D&amp;tr=udp%3A%2F%2Ftracker.openbittorrent.com%3A80&amp;tr=udp%3A%2F%2Fopen.demonii.com%3A1337&amp;tr=udp%3A%2F%2Ftracker.coppersurfer.tk%3A6969&amp;tr=udp%3A%2F%2Fexodus.desync.com%3A6969","seeders":1,"leechers":0,"uploader":"Sbyky","files":1,"time":1411855646,"description":"General\nComplete name                            : Pusha T Ft. Rick Ross - Hold On [Explicit] 1080p [Sbyky].MP4\nFormat                                   : MPEG-4\nFormat profile                           : Base Media\nCodec ID                                 : isom\nFile size                                : 70.8 MiB\nDuration                                 : 4mn 53s\nOverall bit rate mode                    : Variable\nOverall bit rate                         : 2 022 Kbps\nEncoded date                             : UTC 2014-03-07 21:22:06\nTagged date                              : UTC 2014-03-07 21:22:06\n\nVideo\nID                                       : 1\nFormat                                   : AVC\nFormat/Info                              : Advanced Video Codec\nFormat profile                           : &lt;a class=&quot;__cf_email__&quot; href=&quot;/cdn-cgi/l/email-protection&quot; data-cfemail=&quot;f3bb9a949bb3bfc7ddc3&quot;&gt;[email&amp;#160;protected]&lt;/a&gt;&lt;script data-cfhash='f9e31' type=&quot;text/javascript&quot;&gt;\n/* &lt;![CDATA[ */!function(){try{var t=&quot;currentScript&quot;in document?document.currentScript:function(){for(var t=document.getElementsByTagName(&quot;script&quot;),e=t.length;e--;)if(t[e].getAttribute(&quot;data-cfhash&quot;))return t[e]}();if(t&amp;&amp;t.previousSibling){var e,r,n,i,c=t.previousSibling,a=c.getAttribute(&quot;data-cfemail&quot;);if(a){for(e=&quot;&quot;,r=parseInt(a.substr(0,2),16),n=2;a.length-n;n+=2)i=parseInt(a.substr(n,2),16)^r,e+=String.fromCharCode(i);e=document.createTextNode(e),c.parentNode.replaceChild(e,c)}t.parentNode.removeChild(t);}}catch(u){}}()/* ]]&gt; */&lt;/script&gt;\nFormat settings, CABAC                   : Yes\nFormat settings, ReFrames                : 3 frames\nCodec ID                                 : avc1\nCodec ID/Info                            : Advanced Video Coding\nDuration                                 : 4mn 53s\nBit rate                                 : 1 893 Kbps\nWidth                                    : 1 920 pixels\nHeight                                   : 1 080 pixels\nDisplay aspect ratio                     : 16:9\nFrame rate mode                          : Variable\nFrame rate                               : 23.976 fps\nMinimum frame rate                       : 23.974 fps\nMaximum frame rate                       : 1 343.284 fps\nColor space                              : YUV\nChroma subsampling                       : 4:2:0\nBit depth                                : 8 bits\nScan type                                : Progressive\nBits/(Pixel*Frame)                       : 0.038\nStream size                              : 66.3 MiB (94%)\nEncoded date                             : UTC 2014-03-07 21:22:06\nTagged date                              : UTC 2014-03-07 21:22:06\n\nAudio\nID                                       : 2\nFormat                                   : AAC\nFormat/Info                              : Advanced Audio Codec\nFormat profile                           : LC\nCodec ID                                 : 40\nDuration                                 : 4mn 53s\nBit rate mode                            : Variable\nBit rate                                 : 126 Kbps\nChannel(s)                               : 2 channels\nChannel positions                        : Front: L R\nSampling rate                            : 44.1 KHz\nCompression mode                         : Lossy\nStream size                              : 4.40 MiB (6%)\nEncoded date                             : UTC 2014-03-07 21:21:09\nTagged date                              : UTC 2014-03-07 21:21:09\n\nShared By Sbyky\n","torrent":{"xt":"urn:btih:b7bd3c2f6856bda33753cc822aabd0c91765b509","amp;dn":"Pusha+T+Ft.+Rick+Ross+-+Hold+On+%5BExplicit%5D+1080p+%5BSbyky%5D","amp;tr":["udp%3A%2F%2Ftracker.openbittorrent.com%3A80","udp%3A%2F%2Fopen.demonii.com%3A1337","udp%3A%2F%2Ftracker.coppersurfer.tk%3A6969","udp%3A%2F%2Fexodus.desync.com%3A6969"],"infoHash":"b7bd3c2f6856bda33753cc822aabd0c91765b509","infoHashBuffer":{"type":"Buffer","data":[183,189,60,47,104,86,189,163,55,83,204,130,42,171,208,201,23,101,181,9]},"announce":[],"urlList":[]}}